# xmcd
#
# Track frame offsets: 
#        150
#        19143
#        38001
#        52297
#        67525
#        82103
#        98289
#        112834
#        131388
#        148666
#        164818
#        180427
#        197541
#        215575
#        231377
#        249172
#        264561
#        278312
#        294266
#        307003
#
# Disc length: 4298 seconds
#
# Revision: 3
# Processed by: cddbd v1.5.2PL0 Copyright (c) Steve Scherf et al.
# Submitted via: ExactAudioCopy v1.3
#
DISCID=1010c814
DTITLE=Various Artist - Ottis Wiesn Hits 2005
DYEAR=2005
DGENRE=Pop
TTITLE0=Rainhard Fendrich - Macho, Macho
TTITLE1=E.A.V. - Küss die Hand schöne Frau
TTITLE2=Buddy - Mama Mallorca
TTITLE3=Blue Lagoon - Heartbreaker (Radio Edit)
TTITLE4=Buttons - Ilarie (Radio Mix)
TTITLE5=Papi Sanchez - Enamorame (Radio Mix)
TTITLE6=Papa Ad - Gasolina (Radio Dy Bikes)
TTITLE7=Nitty - Nasty Girl (Main)
TTITLE8=Boss Hoss - Hey Ya! (Radio Version)
TTITLE9=Juli - Geile Zeit (Radio Version)
TTITLE10=Danzel - Put Your Hands Up In The Air! (Radio Edit)
TTITLE11=Groove Coverage - Holy Virgin (Radio Edit)
TTITLE12=DJ Sammy - Why (Radio Edit)
TTITLE13=Arsenium - Love Me..., Love Me... (Original Radio Edit)
TTITLE14=Housekeepers - Go Down (Radio Edit)
TTITLE15=Beats and Stylez - Dance Dance Dance
TTITLE16=Elizé - I'm No Latino (Radio Edit)
TTITLE17=Global Deejays - What A Feeling (Flashdance) (Pop Radio Versi
TTITLE17=on)
TTITLE18=Crazy Frog - Axel F (Radio Mix)
TTITLE19=Vinylshakerz - Club Tropicana (Vinylshakers Screen Cut)
EXTD=
EXTT0=
EXTT1=
EXTT2=
EXTT3=
EXTT4=
EXTT5=
EXTT6=
EXTT7=
EXTT8=
EXTT9=
EXTT10=
EXTT11=
EXTT12=
EXTT13=
EXTT14=
EXTT15=
EXTT16=
EXTT17=
EXTT18=
EXTT19=
PLAYORDER=
